# AST/ASF file generated using VICON BodyLanguage
# -----------------------------------------------
:version 1.10
:name VICON
:units
  mass 1.0
  length 0.45
  angle deg
:documentation
   .ast/.asf automatically generated from VICON data using
   VICON BodyBuilder and BodyLanguage model FoxedUp or BRILLIANT.MOD
:root
   order TX TY TZ RX RY RZ
   axis XYZ
   position 0 0 0  
   orientation 0 0 0 
:bonedata
  begin
     id 1 
     name lhipjoint
     direction 0.440178 -0.822639 0.359871 
     length 2.53113 
     axis 0 0 0  XYZ
  end
  begin
     id 2 
     name lfemur
     direction 0.34202 -0.939693 0  
     length 7.88132  
     axis 0 0 20  XYZ
    dof rx ry rz
    limits (-160.0 20.0)
           (-70.0 70.0)
           (-60.0 70.0)
  end
  begin
     id 3 
     name ltibia
     direction 0.34202 -0.939693 0   
     length 8.43783   
     axis 0 0 20   XYZ
    dof rx
    limits (-10.0 170.0)
  end
  begin
     id 4 
     name lfoot
     direction 0.0886351 -0.243523 0.965837   
     length 2.63414   
     axis -90 7.62852e-016 20   XYZ
    dof rx rz
    limits (-45.0 90.0)
           (-70.0 20.0)
  end
  begin
     id 5 
     name ltoes
     direction 1.53703e-011 -4.21717e-011 1   
     length 1.31427   
     axis -90 7.62852e-016 20   XYZ
    dof rx
    limits (-90.0 20.0)
  end
  begin
     id 6 
     name rhipjoint
     direction -0.399779 -0.839773 0.367367   
     length 2.47948  
     axis 0 0 0  XYZ 
  end
  begin
     id 7 
     name rfemur
     direction -0.34202 -0.939693 0   
     length 7.74806   
     axis 0 0 -20   XYZ
    dof rx ry rz
    limits (-160.0 20.0)
           (-70.0 70.0)
           (-70.0 60.0)
  end
  begin
     id 8 
     name rtibia
     direction -0.34202 -0.939693 0   
     length 8.74432   
     axis 0 0 -20   XYZ
    dof rx
    limits (-10.0 170.0)
 end
 begin
     id 9 
     name rfoot
     direction -0.108514 -0.298139 0.948334   
     length 2.66102  
     axis -90 -7.62852e-016 -20   XYZ
    dof rx rz
    limits (-45.0 90.0)
           (-20.0 70.0)
  end
  begin
     id 10 
     name rtoes
     direction -1.53392e-011 -4.22077e-011 1   
     length 1.31983   
     axis -90 -7.62852e-016 -20   XYZ
    dof rx
    limits (-90.0 20.0)
  end
  begin
     id 11 
     name lowerback
     direction 0.0113257 0.999866 0.0118602   
     length 2.58694   
     axis 0 0 0   XYZ
    dof rx ry rz
    limits (-20.0 45.0)
           (-30.0 30.0)
           (-30.0 30.0)
  end
  begin
     id 12 
     name upperback
     direction -0.0164747 0.995193 -0.0965375   
     length 2.52368   
     axis 0 0 0   XYZ
    dof rx ry rz
    limits (-20.0 45.0)
           (-30.0 30.0)
           (-30.0 30.0)
  end
  begin
     id 13 
     name thorax
     direction -0.0194301 0.99433 -0.104552   
     length 2.56099   
     axis 0 0 0   XYZ
    dof rx ry rz
    limits (-20.0 45.0)
           (-30.0 30.0)
           (-30.0 30.0)
  end
  begin
     id 14 
     name lowerneck
     direction 0.0148543 0.995587 -0.092657   
     length 1.71582   
     axis 0 0 0   XYZ
    dof rx ry rz
    limits (-20.0 45.0)
           (-30.0 30.0)
           (-30.0 30.0)
  end
  begin
     id 15 
     name upperneck
     direction -0.0135467 0.993656 -0.111639   
     length 1.68937   
     axis 0 0 0   XYZ
    dof rx ry rz
    limits (-20.0 45.0)
           (-30.0 30.0)
           (-30.0 30.0)
  end
  begin
     id 16
     name head
     direction -0.00615349 0.999547 -0.029448  
     length 1.7462  
     axis 0 0 0   XYZ
    dof rx ry rz
    limits (-20.0 45.0)
           (-30.0 30.0)
           (-30.0 30.0)
  end
  begin
     id 17 
     name lclavicle
     direction 0.988267 0.149885 0.0293713  
     length 4.47222  
     axis 0 0 0   XYZ
    dof ry rz
    limits (-20.0 10.0)
           (0.0 20.0)
  end
  begin
     id 18 
     name lhumerus
     direction 1 -4.48986e-011 -1.14833e-027   
     length 5.37148   
     axis 180 -30 -90   XYZ
    dof rx ry rz
    limits (-60.0 90.0)
           (-90.0 90.0)
           (-90.0 90.0)
  end
  begin
     id 19
     name lradius
     direction 0.999998 0.00170963 -0.000987055   
     length 3.94212   
     axis 180 -30 -90   XYZ
    dof rx
    limits (-10.0 170.0)
  end
  begin
     id 20
     name lwrist
     direction 0.999998 7.53149e-005 -0.00194706   
     length 1.97106   
     axis 4.65056e-015 90 90   XYZ
    dof ry
    limits (-180.0 0.0)
 end
  begin
     id 21 
     name lhand
     direction 1 -4.48973e-011 -1.31746e-026   
     length 1.17917   
     axis 8.4065e-015 90 90   XYZ
    dof rx rz
    limits (-90.0 90.0)
           (-45.0 45.0)
  end
  begin
     id 22 
     name lfingers
     direction 1 -4.49107e-011 -2.63492e-026   
     length 0.950679   
     axis 1.6813e-014 90 90   XYZ
    dof rx
    limits (0.0 90.0)
  end
  begin
     id 23
     name lthumb
     direction 0.707107 -6.35048e-011 0.707107   
     length 1.36499   
     axis -90 45 2.85299e-015   XYZ
    dof rx rz
    limits (-45.0 45.0)
           (-45.0 45.0)
  end
  begin
     id 24 
     name rclavicle
     direction -0.996699 0.0642895 -0.0495725   
     length 4.62611  
     axis 0 0 0   XYZ 
    dof ry rz
    limits (-10.0 20.0)
           (-20.0 0.0)
  end
  begin
     id 25 
     name rhumerus
     direction -1 -4.48919e-011 -2.41059e-027  
     length 5.4981   
     axis 180 30 90   XYZ
    dof rx ry rz
    limits (-90.0 60.0)
           (-90.0 90.0)
           (-90.0 90.0)
  end
  begin
     id 26 
     name rradius
     direction -0.999999 0.00118101 -0.000681858   
     length 3.48381   
     axis 180 30 90   XYZ
    dof rx
    limits (-10.0 170.0)
  end
  begin
     id 27 
     name rwrist
     direction -0.999999 0.000321823 -0.00132288   
     length 1.7419   
     axis 4.65056e-015 -90 -90   XYZ
    dof ry
    limits (-180.0 0.0)
  end
  begin
     id 28
     name rhand
     direction -1 -4.49022e-011 -1.31746e-026   
     length 1.34932   
     axis 8.4065e-015 -90 -90   XYZ
    dof rx rz
    limits (-90.0 90.0)
           (-45.0 45.0)
  end
  begin
     id 29
     name rfingers
     direction -1 -4.49178e-011 -2.63492e-026   
     length 1.08785   
     axis 1.6813e-014 -90 -90   XYZ
    dof rx
    limits (0.0 90.0)
  end
  begin
     id 30
     name rthumb
     direction -0.707107 -6.34713e-011 0.707107   
     length 1.56195   
     axis -90 -45 -2.85299e-015   XYZ
    dof rx rz
    limits (-45.0 45.0)
           (-45.0 45.0)
  end
:hierarchy
  begin
    root lhipjoint rhipjoint lowerback
    lhipjoint lfemur
    lfemur ltibia
    ltibia lfoot
    lfoot ltoes
    rhipjoint rfemur
    rfemur rtibia
    rtibia rfoot
    rfoot rtoes
    lowerback upperback
    upperback thorax
    thorax lowerneck lclavicle rclavicle
    lowerneck upperneck
    upperneck head
    lclavicle lhumerus
    lhumerus lradius
    lradius lwrist
    lwrist lhand lthumb
    lhand lfingers
    rclavicle rhumerus
    rhumerus rradius
    rradius rwrist
    rwrist rhand rthumb
    rhand rfingers
  end

#!OML:ASF X:\für Bonn\!DataBase\2005_08_10_Bjorn_Final\c3d\bjorn.ASF
:FULLY-SPECIFIED
:DEGREES
16
root 0.776286 19.1262 1.39025 -173.186 -4.2273 179.45
lowerback -0.384005 0.763028 3.5143
upperback 6.96425 0.437115 -0.275858
thorax 7.53723 0.260111 -2.25007
lowerneck -11.6408 -9.33985 -2.56228
upperneck 3.07844 -12.4004 3.95708
head 3.49847 -6.05125 0.88544
rclavicle 1.89839e-014 -5.1684e-015
rhumerus 79.7942 0.636265 -74.3444
rradius 9.44716
rwrist 47.765
rhand -10.7681 7.93099
rfingers 7.12502
rthumb 15.2439 -21.4874
lclavicle 1.89839e-014 -5.1684e-015
lhumerus 82.6323 -7.97581 53.3321
lradius 14.2795
lwrist -34.7493
lhand -15.4859 -8.51988
lfingers 7.12502
lthumb 10.6961 21.1878
rfemur -18.0524 -12.9024 18.1628
rtibia 34.7808
rfoot -20.38 10.9508
rtoes -20.8985
lfemur -13.7623 3.9792 -17.3029
ltibia 32.3293
lfoot -17.9173 -6.06576
ltoes -12.2601
17
root 0.770806 19.1119 1.43593 -173.236 -4.00435 179.442
lowerback 0.0856451 0.816842 3.47052
upperback 7.02569 0.508064 -0.286176
thorax 7.33466 0.28141 -2.23448
lowerneck -11.7786 -9.34569 -2.58044
upperneck 3.08742 -12.4046 3.94878
head 3.52879 -6.05274 0.87824
rclavicle -1.58034e-014 9.74045e-015
rhumerus 79.7592 0.629387 -74.2426
rradius 9.30571
rwrist 47.4975
rhand -10.9297 8.04097
rfingers 7.12502
rthumb 15.0883 -21.3891
lclavicle -1.58034e-014 9.74045e-015
lhumerus 82.5822 -8.02384 53.36
lradius 14.1725
lwrist -35.3546
lhand -15.8866 -8.55161
lfingers 7.12502
lthumb 10.3096 21.1757
rfemur -18.422 -12.3207 18.1448
rtibia 35.2625
rfoot -20.6259 10.4968
rtoes -21.2756
lfemur -14.3949 4.07065 -17.3506
ltibia 33.3401
lfoot -18.1596 -5.82346
ltoes -13.8012
18
root 0.765356 19.0925 1.4829 -173.281 -3.76032 179.452
lowerback 0.576486 0.873041 3.42827
upperback 7.07262 0.582628 -0.285166
thorax 7.10473 0.303926 -2.20863
lowerneck -11.7832 -9.3452 -2.63003
upperneck 2.95427 -12.3995 4.00039
head 3.49051 -6.05265 0.906424
rclavicle -2.38542e-015 -1.35174e-014
rhumerus 79.7284 0.638304 -74.1343
rradius 9.13129
rwrist 47.3002
rhand -11.1176 8.16066
rfingers 7.12502
rthumb 14.9072 -21.283
lclavicle -2.38542e-015 -1.35174e-014
lhumerus 82.639 -8.03396 52.8753
lradius 14.0179
lwrist -35.4292
lhand -16.3053 -8.4631
lfingers 7.12502
lthumb 9.90557 21.2839
rfemur -18.8796 -11.8105 18.1492
rtibia 35.88
rfoot -20.9192 10.1039
rtoes -21.7272
lfemur -15.087 4.24811 -17.3897
ltibia 34.4623
lfoot -18.491 -5.54892
ltoes -15.7021
19
root 0.759605 19.0662 1.53151 -173.318 -3.5227 179.438
lowerback 1.08062 0.926922 3.35203
upperback 7.1104 0.655136 -0.275989
thorax 6.85669 0.323011 -2.15639
lowerneck -11.5733 -9.33118 -2.78482
upperneck 2.58333 -12.3711 4.1999
head 3.34733 -6.04485 1.01749
rclavicle 8.05078e-015 1.19271e-014
rhumerus 79.7221 0.648439 -74.0005
rradius 8.94998
rwrist 47.0798
rhand -11.2524 8.30454
rfingers 7.12502
rthumb 14.7773 -21.1486
lclavicle 8.05078e-015 1.19271e-014
lhumerus 82.7302 -8.01853 52.5027
lradius 13.8338
lwrist -35.3954
lhand -16.5821 -8.39574
lfingers 7.12502
lthumb 9.63856 21.3638
rfemur -19.4317 -11.3557 18.1275
rtibia 36.6393
rfoot -21.243 9.78797
rtoes -22.0933
lfemur -15.84 4.41741 -17.4552
ltibia 35.6799
lfoot -18.909 -5.25638
ltoes -17.591
20
root 0.755107 19.0274 1.58386 -173.381 -3.31621 179.427
lowerback 1.64143 0.981174 3.30124
upperback 7.14554 0.729057 -0.298954
thorax 6.57518 0.344527 -2.15349
lowerneck -11.1643 -9.30922 -2.92826
upperneck 1.99939 -12.3429 4.53671
head 3.10386 -6.04013 1.1849
rclavicle -4.07509e-015 9.93923e-016
rhumerus 79.7031 0.596783 -73.912
rradius 8.79418
rwrist 46.9251
rhand -11.3505 8.41744
rfingers 7.12502
rthumb 14.6828 -21.0427
lclavicle -4.07509e-015 9.93923e-016
lhumerus 82.8929 -8.01943 51.8612
lradius 13.6757
lwrist -35.0622
lhand -16.7734 -8.33513
lfingers 7.12502
lthumb 9.45399 21.4328
rfemur -20.0394 -10.8728 18.1141
rtibia 37.5451
rfoot -21.6101 9.43713
rtoes -22.2605
lfemur -16.6466 4.64392 -17.5035
ltibia 37.0169
lfoot -19.4118 -5.01399
ltoes -19.7065
21
root 0.751643 18.9824 1.63772 -173.367 -3.15858 179.378
lowerback 2.15047 1.01987 3.21088
upperback 7.17146 0.783067 -0.327659
thorax 6.31216 0.355498 -2.1357
lowerneck -10.9634 -9.28701 -3.03956
upperneck 1.55434 -12.3153 4.82366
head 2.94306 -6.03293 1.31682
rclavicle 4.27387e-015 -5.1684e-015
rhumerus 79.7516 0.512717 -73.8167
rradius 8.63117
rwrist 46.7682
rhand -11.4896 8.52564
rfingers 7.12502
rthumb 14.5488 -20.9442
lclavicle 4.27387e-015 -5.1684e-015
lhumerus 83.1268 -7.98216 51.0438
lradius 13.5294
lwrist -34.3616
lhand -16.8685 -8.28534
lfingers 7.12502
lthumb 9.3622 21.4867
rfemur -20.8075 -10.455 18.0849
rtibia 38.5865
rfoot -22.0287 9.12784
rtoes -22.3568
lfemur -17.588 4.84813 -17.5913
ltibia 38.4451
lfoot -19.9217 -4.79678
ltoes -21.56
